<?xml version="1.0" encoding="UTF-8"?>
<svg width="16px" height="14px" viewBox="0 0 16 14" version="1.1" xmlns="http://www.w3.org/2000/svg" xmlns:xlink="http://www.w3.org/1999/xlink">
    <!-- Generator: Sketch 50.2 (55047) - http://www.bohemiancoding.com/sketch -->
    <title>icon</title>
    <desc>Created with Sketch.</desc>
    <defs>
        <path d="M8.00333333,4.40625 C5.88333333,4.40625 4.17333333,6.009375 4.17333333,7.996875 C4.17333333,9.984375 5.88333333,11.5875 8.00333333,11.5875 C10.1233333,11.5875 11.8333333,9.984375 11.8333333,7.996875 C11.8333333,6.009375 10.1233333,4.40625 8.00333333,4.40625 Z M8.00333333,10.33125 C6.63333333,10.33125 5.51333333,9.284375 5.51333333,7.996875 C5.51333333,6.709375 6.63,5.6625 8.00333333,5.6625 C9.37666667,5.6625 10.4933333,6.709375 10.4933333,7.996875 C10.4933333,9.284375 9.37333333,10.33125 8.00333333,10.33125 Z M12.8833333,4.259375 C12.8833333,4.725 12.4833333,5.096875 11.99,5.096875 C11.4933333,5.096875 11.0966667,4.721875 11.0966667,4.259375 C11.0966667,3.796875 11.4966667,3.421875 11.99,3.421875 C12.4833333,3.421875 12.8833333,3.796875 12.8833333,4.259375 Z M15.42,5.109375 C15.3633333,3.9875 15.09,2.99375 14.2133333,2.175 C13.34,1.35625 12.28,1.1 11.0833333,1.04375 C9.85,0.978125 6.15333333,0.978125 4.92,1.04375 C3.72666667,1.096875 2.66666667,1.353125 1.79,2.171875 C0.913333333,2.990625 0.643333333,3.984375 0.583333333,5.10625 C0.513333333,6.2625 0.513333333,9.728125 0.583333333,10.884375 C0.64,12.00625 0.913333333,13 1.79,13.81875 C2.66666667,14.6375 3.72333333,14.89375 4.92,14.95 C6.15333333,15.015625 9.85,15.015625 11.0833333,14.95 C12.28,14.896875 13.34,14.640625 14.2133333,13.81875 C15.0866667,13 15.36,12.00625 15.42,10.884375 C15.49,9.728125 15.49,6.265625 15.42,5.109375 Z M13.8266667,12.125 C13.5666667,12.7375 13.0633333,13.209375 12.4066667,13.45625 C11.4233333,13.821875 9.09,13.7375 8.00333333,13.7375 C6.91666667,13.7375 4.58,13.81875 3.6,13.45625 C2.94666667,13.2125 2.44333333,12.740625 2.18,12.125 C1.79,11.203125 1.88,9.015625 1.88,7.996875 C1.88,6.978125 1.79333333,4.7875 2.18,3.86875 C2.44,3.25625 2.94333333,2.784375 3.6,2.5375 C4.58333333,2.171875 6.91666667,2.25625 8.00333333,2.25625 C9.09,2.25625 11.4266667,2.175 12.4066667,2.5375 C13.06,2.78125 13.5633333,3.253125 13.8266667,3.86875 C14.2166667,4.790625 14.1266667,6.978125 14.1266667,7.996875 C14.1266667,9.015625 14.2166667,11.20625 13.8266667,12.125 Z" id="path-1"></path>
    </defs>
    <g id="Symbols" stroke="none" stroke-width="1" fill="none" fill-rule="evenodd">
        <g id="base/footer/en" transform="translate(-1540.000000, -373.000000)">
            <g id="about" transform="translate(360.000000, 368.000000)">
                <g id="footer-social" transform="translate(878.000000, 0.000000)">
                    <g id="base/footer/icon" transform="translate(298.000000, 0.000000)">
                        <g id="instagram" transform="translate(4.000000, 4.000000)">
                            <mask id="mask-2" fill="white">
                                <use xlink:href="#path-1"></use>
                            </mask>
                            <g fill-rule="nonzero"></g>
                            <g id="grey/7(dark-grey-&amp;-text-secondary)" mask="url(#mask-2)" fill="#6C7073" fill-rule="evenodd">
                                <rect id="base" x="0" y="0" width="16" height="16"></rect>
                            </g>
                        </g>
                    </g>
                </g>
            </g>
        </g>
    </g>
</svg>