<?xml version="1.0" encoding="UTF-8"?>
<svg width="16px" height="14px" viewBox="0 0 16 14" version="1.1" xmlns="http://www.w3.org/2000/svg" xmlns:xlink="http://www.w3.org/1999/xlink">
    <!-- Generator: Sketch 50.2 (55047) - http://www.bohemiancoding.com/sketch -->
    <title>icon</title>
    <desc>Created with Sketch.</desc>
    <defs>
        <path d="M14.3553125,4.741125 C14.3654687,4.88325 14.3654687,5.02540625 14.3654687,5.16753125 C14.3654687,9.50253125 11.066,14.4974687 5.03553125,14.4974687 C3.17765625,14.4974687 1.45178125,13.959375 0,13.0254062 C0.26396875,13.0558437 0.51775,13.066 0.791875,13.066 C2.32484375,13.066 3.73603125,12.54825 4.8629375,11.665 C3.4213125,11.6345312 2.2131875,10.690375 1.7969375,9.390875 C2,9.4213125 2.20303125,9.441625 2.41625,9.441625 C2.71065625,9.441625 3.00509375,9.401 3.2791875,9.32996875 C1.77665625,9.025375 0.64971875,7.70559375 0.64971875,6.1116875 L0.64971875,6.07109375 C1.08625,6.31475 1.59390625,6.46703125 2.1319375,6.4873125 C1.2486875,5.89846875 0.67003125,4.89340625 0.67003125,3.75634375 C0.67003125,3.14721875 0.8324375,2.58884375 1.11671875,2.10153125 C2.7309375,4.091375 5.15734375,5.39084375 7.878125,5.533 C7.827375,5.28934375 7.79690625,5.0355625 7.79690625,4.78175 C7.79690625,2.974625 9.25884375,1.5025625 11.0760938,1.5025625 C12.02025,1.5025625 12.8730313,1.8985 13.4720313,2.53809375 C14.213125,2.39596875 14.9237813,2.12184375 15.55325,1.74621875 C15.3095625,2.50765625 14.7918125,3.14725 14.111625,3.5533125 C14.7715313,3.48228125 15.411125,3.2995 15.9999375,3.04571875 C15.5533125,3.6954375 14.9949063,4.27409375 14.3553125,4.741125 Z" id="path-1"></path>
    </defs>
    <g id="Symbols" stroke="none" stroke-width="1" fill="none" fill-rule="evenodd">
        <g id="base/footer/en" transform="translate(-1420.000000, -373.000000)">
            <g id="about" transform="translate(360.000000, 368.000000)">
                <g id="footer-social" transform="translate(878.000000, 0.000000)">
                    <g id="base/footer/icon" transform="translate(178.000000, 0.000000)">
                        <g id="twitter" transform="translate(4.000000, 4.000000)">
                            <mask id="mask-2" fill="white">
                                <use xlink:href="#path-1"></use>
                            </mask>
                            <g fill-rule="nonzero"></g>
                            <g id="grey/7(dark-grey-&amp;-text-secondary)" mask="url(#mask-2)" fill="#6C7073" fill-rule="evenodd">
                                <rect id="base" x="0" y="0" width="16" height="16"></rect>
                            </g>
                        </g>
                    </g>
                </g>
            </g>
        </g>
    </g>
</svg>