<svg width="16" height="16" viewBox="0 0 16 16" xmlns="http://www.w3.org/2000/svg"><path d="M14.5653515 3.2149533H4.0304979L3.8229215 2.107838c-.0530592-.282891-.3000623-.4879003-.5878878-.4879003H1.1076318c-.1651589 0-.2990654.1339065-.2990654.2990654v.199377c0 .1651588.1339065.2990654.2990654.2990654H3.069501l1.742729 9.2946043c-.2577446.2833147-.4148785.6597882-.4148785 1.0729969 0 .8808972.7141183 1.5950156 1.5950155 1.5950156.8808972 0 1.5950156-.7141184 1.5950156-1.5950156.0003106-.2800527-.0734893-.5552009-.2139065-.7975078h3.6178691c-.1404172.2423069-.2142171.5174551-.2139065.7975078 0 .8808972.7141184 1.5950156 1.5950156 1.5950156.8808972 0 1.5950155-.7141184 1.5950155-1.5950156 0-.4484236-.1852959-.8533333-.48319-1.1431277-.0645732-.2552274-.2954019-.4518878-.5803115-.4518878H5.525825l-.2990655-1.5950156h8.2587166c.2833146 0 .5277757-.1987788.5855701-.4761371l1.0799003-5.1838006c.0773582-.3714393-.2061807-.7201246-.585595-.7201246zm-2.1929222 8.7725856c.4397508 0 .7975078.3577571.7975078.7975078 0 .4397508-.357757.7975078-.7975078.7975078-.4397507 0-.7975078-.357757-.7975078-.7975078 0-.4397507.3577571-.7975078.7975078-.7975078zm-6.3800623 0c.4397508 0 .7975078.3577571.7975078.7975078 0 .4397508-.357757.7975078-.7975078.7975078-.4397507 0-.7975078-.357757-.7975078-.7975078 0-.4397507.357757-.7975078.7975078-.7975078zm7.3309907-3.1900311H5.0772268L4.1800306 4.012461h10.1402118l-.9968847 4.7850467zM7.5873826 6.5046729v-.199377c0-.1651588.1339065-.2990654.2990654-.2990654h.8971963v-.8971962c0-.165159.1339065-.2990655.2990654-.2990655h.199377c.1651588 0 .2990654.1339066.2990654.2990655v.8971962h.8971962c.1651589 0 .2990655.1339066.2990655.2990654v.199377c0 .1651589-.1339066.2990654-.2990655.2990654h-.8971962v.8971963C9.581152 7.8660935 9.4472455 8 9.2820866 8h-.1993769c-.1651589 0-.2990654-.1339065-.2990654-.2990654v-.8971963H7.886448c-.1651589 0-.2990654-.1339065-.2990654-.2990654z" fill="#fff" fill-rule="evenodd" fill-opacity=".85"/></svg>